# xmcd
# Track frame offsets:
# 150
# 26210
# 43123
# 67887
# 82197
# 107158
# 127641
# 145730
# 164994
# 183101
# 205723
#
# Disc length: 3019 seconds
# Revision: 1
# Processed by: cddbd v1.5.2PL0 Copyright (c) Steve Scherf et al.
# Submitted via: VisiTrax 2.10.3.257 - For more info visit www.synapsa.com
#
DISCID=970bc90b
DTITLE=Benoit, Tab - Medicine
DYEAR=2011
DGENRE=Blues
TTITLE0=Medicine
TTITLE1=Sunrise
TTITLE2=A Whole Lotta Soul
TTITLE3=Come And Get It
TTITLE4=Broke And Lonely
TTITLE5=Long Lonely Bayou
TTITLE6=In It To Win It
TTITLE7=Can't You See
TTITLE8=Nothing Takes The Place Of You
TTITLE9=Next To Me
TTITLE10=Mudboat Melissa
EXTD=Tab Benoit - Guitar and Vocals, Anders Osborne - Guitar and Backup Vocals
EXTD=, Corey Duplechin - Bass, Ivan Neville - Hammond B3, Brady Blade - Dru
EXTD=ms, Michael Doucet - Fiddle and Vocals. Produced by: Tab Benoit and Ander
EXTD=s Osborne. Associate Producer: Rueben M. Williams. Recorded by: Davi
EXTD=d Z at Dockside Studio, Maurice, Louisiana. Assistant Engineer: Davi
EXTD=d Farrel. Mixed by: Tab Benoit at Whiskey Bayou Studios. Mastered by
EXTD=: Paul Blakemore at CMG Mastering. TELARC INTERNATIONAL TEL-32823-02.
EXTT0=
EXTT1=
EXTT2=
EXTT3=
EXTT4=
EXTT5=
EXTT6=
EXTT7=
EXTT8=
EXTT9=
EXTT10=
PLAYORDER=
